<svg width="359" height="71" viewBox="0 0 359 71" fill="none" xmlns="http://www.w3.org/2000/svg">
<g clip-path="url(#clip0)">
<path d="M135.636 27.8216L131.057 53.1044H119.13L123.709 27.8216C124.068 25.8344 123.86 25.4681 122.169 25.4681H117.864C116.184 25.4681 115.832 25.8344 115.477 27.7711C115.477 27.7711 115.477 27.8048 115.477 27.8216L110.898 53.1044H98.9606L103.543 27.8216C103.902 25.8344 103.694 25.4681 102 25.4681H97.694C95.9999 25.4681 95.6593 25.8386 95.3003 27.8216L90.7183 53.1044H78.7909L85.8203 14.2939H95.5083L97.0445 17.6285C97.9275 16.5371 98.9975 15.6761 100.183 15.1016C101.368 14.527 102.645 14.2519 103.927 14.2939H106.399C111.063 14.2939 114.21 16.6728 115.337 20.6936C117.422 16.2223 120.443 14.2939 124.092 14.2939H126.569C133.577 14.2939 137.14 19.6031 135.636 27.8216Z" fill="#5965E0"/>
<path d="M172.01 27.8216L169.883 39.5767C168.394 47.7952 162.903 53.1044 155.888 53.1044H146.853C139.848 53.1044 136.286 47.791 137.775 39.5725L139.903 27.8216C141.388 19.6031 146.879 14.2939 153.897 14.2939H162.946C169.936 14.2939 173.503 19.6031 172.01 27.8216ZM160.072 27.8216C160.431 25.8343 160.223 25.468 158.533 25.468H154.227C152.533 25.468 152.193 25.8385 151.834 27.8216L149.702 39.5725C149.343 41.5598 149.555 41.9261 151.246 41.9261H155.551C157.241 41.9261 157.586 41.5556 157.945 39.5725L160.072 27.8216Z" fill="#5965E0"/>
<path d="M246.448 24.7313C246.012 26.9376 244.959 28.9089 243.456 30.331L237.381 36.2254C235.925 37.6626 234.092 38.4709 232.189 38.5158H223.778L223.588 39.5558C223.229 41.543 223.437 41.9093 225.131 41.9093H243.331L241.306 53.0877H220.724C213.72 53.0877 210.158 47.7743 211.646 39.5558L213.774 27.8048C215.264 19.5863 220.753 14.2772 227.768 14.2772H236.825C243.812 14.294 247.424 19.3253 246.448 24.7313ZM233.954 27.8217C234.313 25.8344 234.105 25.4681 232.412 25.4681H228.105C226.419 25.4639 226.06 25.8386 225.701 27.8217L224.984 31.8678H232.089C232.407 31.8523 232.713 31.7152 232.959 31.4774C233.204 31.2395 233.378 30.9139 233.452 30.55L233.954 27.8217Z" fill="#5965E0"/>
<path d="M259.858 46.5154C259.198 50.1573 256.747 53.1087 253.04 53.1087C249.334 53.1087 247.956 50.1615 248.617 46.5154C249.277 42.8693 251.727 39.9263 255.434 39.9263C259.14 39.9263 260.508 42.8693 259.858 46.5154Z" fill="#4CD62B"/>
<path d="M32.2441 0H47.3794L34.7882 70.3076H19.653L32.2441 0Z" fill="#5965E0"/>
<path d="M54.4518 0H69.5871L59.7768 55.0874H44.6379L54.4518 0Z" fill="#5965E0"/>
<path d="M9.81391 0H24.9492L15.1389 55.0874H0L9.81391 0Z" fill="#5965E0"/>
<path d="M216.178 14.2939L194.064 53.1044H181.864L173.797 14.2939H186.862L190.375 39.7788L203.113 14.315L216.178 14.2939Z" fill="#5965E0"/>
<path d="M358.042 23.7313C357.607 25.9376 356.557 27.9089 355.058 29.331L349 35.2254C347.547 36.6626 345.72 37.4709 343.822 37.5158H335.434L335.244 38.5558C334.887 40.543 335.095 40.9093 336.783 40.9093H354.933L352.914 52.0877H332.389C325.405 52.0877 321.852 46.7743 323.336 38.5558L325.458 26.8048C326.944 18.5863 332.418 13.2772 339.414 13.2772H348.446C355.412 13.294 359.015 18.3253 358.042 23.7313ZM345.582 26.8217C345.94 24.8344 345.733 24.4681 344.044 24.4681H339.75C338.068 24.4639 337.71 24.8386 337.352 26.8217L336.637 30.8678H343.722C344.04 30.8523 344.345 30.7152 344.59 30.4774C344.835 30.2395 345.008 29.9139 345.082 29.55L345.582 26.8217Z" fill="#5965E0"/>
<path d="M321.042 26.8396L316.476 52.1224H304.582L309.148 26.8396C309.506 24.8524 309.298 24.4861 307.613 24.4861H303.319C301.644 24.4861 301.293 24.8524 300.939 26.7891C300.939 26.7891 300.939 26.8228 300.939 26.8396L296.373 52.1224H284.468L289.038 26.8396C289.396 24.8524 289.188 24.4861 287.499 24.4861H283.205C281.516 24.4861 281.176 24.8566 280.818 26.8396L276.249 52.1224H264.354L271.364 13.3119H281.026L282.557 16.6465C283.438 15.5551 284.505 14.6941 285.688 14.1196C286.869 13.545 288.142 13.2699 289.421 13.3119H291.886C296.538 13.3119 299.676 15.6908 300.8 19.7116C302.879 15.2403 305.892 13.3119 309.53 13.3119H312C318.989 13.3119 322.542 18.6211 321.042 26.8396Z" fill="#5965E0"/>
</g>
<defs>
<clipPath id="clip0">
<rect width="358.199" height="70.3076" fill="white"/>
</clipPath>
</defs>
</svg>
