<svg width="285" height="47" viewBox="0 0 285 47" fill="none" xmlns="http://www.w3.org/2000/svg">
<g clip-path="url(#clip0)">
<path d="M108.94 19.0488L105.263 35.6822H95.6824L99.3598 19.0488C99.6481 17.7414 99.481 17.5004 98.1235 17.5004H94.6651C93.3163 17.5004 93.0338 17.7414 92.7486 19.0155C92.7486 19.0155 92.7486 19.0377 92.7486 19.0488L89.0712 35.6822H79.4826L83.163 19.0488C83.4512 17.7414 83.284 17.5004 81.9237 17.5004H78.4653C77.105 17.5004 76.8312 17.7441 76.5431 19.0488L72.8627 35.6822H63.283L68.9288 10.149H76.7102L77.9437 12.3428C78.6533 11.6247 79.5122 11.0583 80.4646 10.6803C81.4169 10.3023 82.4414 10.1213 83.4714 10.149H85.4571C89.2037 10.149 91.7312 11.714 92.6362 14.3593C94.3106 11.4176 96.7372 10.149 99.6683 10.149H101.657C107.285 10.149 110.147 13.6419 108.94 19.0488Z" fill="#5965E0"/>
<path d="M255.806 19.0488L252.129 35.6822H242.549L246.226 19.0488C246.515 17.7414 246.347 17.5004 244.99 17.5004H241.532C240.183 17.5004 239.9 17.7414 239.615 19.0155C239.615 19.0155 239.615 19.0377 239.615 19.0488L235.938 35.6822H226.349L230.029 19.0488C230.318 17.7414 230.15 17.5004 228.79 17.5004H225.332C223.971 17.5004 223.698 17.7441 223.41 19.0488L219.729 35.6822H210.149L215.795 10.149H223.577L224.81 12.3428C225.52 11.6247 226.379 11.0583 227.331 10.6803C228.283 10.3023 229.308 10.1213 230.338 10.149H232.324C236.07 10.149 238.598 11.714 239.503 14.3593C241.177 11.4176 243.604 10.149 246.535 10.149H248.523C254.151 10.149 257.013 13.6419 255.806 19.0488Z" fill="#5965E0"/>
<path d="M138.154 19.0487L136.445 26.7824C135.249 32.1893 130.84 35.6821 125.205 35.6821H117.948C112.322 35.6821 109.46 32.1865 110.657 26.7796L112.366 19.0487C113.559 13.6418 117.969 10.1489 123.605 10.1489H130.874C136.488 10.1489 139.353 13.6418 138.154 19.0487ZM128.566 19.0487C128.854 17.7413 128.686 17.5003 127.329 17.5003H123.871C122.511 17.5003 122.237 17.7441 121.948 19.0487L120.237 26.7796C119.948 28.087 120.118 28.328 121.475 28.328H124.934C126.292 28.328 126.569 28.0842 126.857 26.7796L128.566 19.0487Z" fill="#5965E0"/>
<path d="M197.942 17.0156C197.591 18.467 196.745 19.7639 195.538 20.6996L190.658 24.5775C189.489 25.523 188.017 26.0548 186.489 26.0843H179.733L179.58 26.7685C179.292 28.0759 179.46 28.3169 180.82 28.3169H195.437L193.812 35.671H177.281C171.655 35.671 168.793 32.1754 169.989 26.7685L171.698 19.0376C172.894 13.6307 177.303 10.1378 182.938 10.1378H190.212C195.824 10.1489 198.725 13.459 197.942 17.0156ZM187.906 19.0487C188.194 17.7413 188.028 17.5003 186.668 17.5003H183.209C181.854 17.4975 181.566 17.744 181.278 19.0487L180.701 21.7106H186.408C186.664 21.7004 186.909 21.6102 187.107 21.4537C187.304 21.2972 187.443 21.083 187.503 20.8436L187.906 19.0487Z" fill="#5965E0"/>
<path d="M208.711 31.3471C208.181 33.7431 206.213 35.6849 203.236 35.6849C200.259 35.6849 199.152 33.7459 199.682 31.3471C200.213 28.9484 202.181 27.0122 205.158 27.0122C208.136 27.0122 209.233 28.9484 208.711 31.3471Z" fill="#4CD62B"/>
<path d="M25.8969 0.744995H38.0532L27.9402 47H15.7839L25.8969 0.744995Z" fill="#5965E0"/>
<path d="M43.734 0.744995H55.8903L48.0109 36.9868H35.8518L43.734 0.744995Z" fill="#5965E0"/>
<path d="M7.88179 0.744995H20.0381L12.1587 36.9868H-0.000488281L7.88179 0.744995Z" fill="#5965E0"/>
<path d="M173.629 10.1489L155.867 35.6821H146.068L139.59 10.1489H150.083L152.905 26.9153L163.136 10.1628L173.629 10.1489Z" fill="#5965E0"/>
<path d="M284.04 16.8778C283.69 18.3292 282.843 19.6261 281.636 20.5618L276.757 24.4397C275.588 25.3852 274.116 25.917 272.588 25.9465H265.832L265.679 26.6307C265.391 27.9381 265.558 28.1791 266.919 28.1791H281.536L279.911 35.5332H263.38C257.753 35.5332 254.892 32.0376 256.087 26.6307L257.797 18.8998C258.993 13.4929 263.402 10 269.037 10H276.311C281.923 10.0111 284.824 13.3212 284.04 16.8778ZM274.005 18.9109C274.293 17.6035 274.127 17.3625 272.766 17.3625H269.308C267.953 17.3597 267.665 17.6062 267.377 18.9109L266.8 21.5728H272.507C272.762 21.5626 273.008 21.4724 273.206 21.3159C273.403 21.1594 273.542 20.9452 273.602 20.7058L274.005 18.9109Z" fill="#5965E0"/>
</g>
<defs>
<clipPath id="clip0">
<rect width="285" height="47" fill="white" transform="translate(-0.000488281)"/>
</clipPath>
</defs>
</svg>
